HIERARCHY
ROOT Hips
{
    OFFSET 0.000000 0.000000 0.000000
    CHANNELS 6 Xposition Yposition Zposition Zrotation Xrotation Yrotation
    JOINT Spine
    {
        OFFSET -0.000000 8.339920 0.000000
        CHANNELS 3 Zrotation Xrotation Yrotation
        JOINT Spine1
        {
            OFFSET -0.000000 25.214485 0.000000
            CHANNELS 3 Zrotation Xrotation Yrotation
            JOINT Neck
            {
                OFFSET -0.000000 25.110935 2.282812
                CHANNELS 3 Zrotation Xrotation Yrotation
                JOINT Head
                {
                    OFFSET -0.000000 14.238888 -2.034127
                    CHANNELS 3 Zrotation Xrotation Yrotation
                    End Site
                    {
                        OFFSET -0.000000 25.426584 0.000000
                    }
                }
            }
            JOINT LeftShoulder
            {
                OFFSET 4.025024 23.158985 -0.185822
                CHANNELS 3 Zrotation Xrotation Yrotation
                JOINT LeftArm
                {
                    OFFSET 11.674057 0.000000 0.000000
                    CHANNELS 3 Zrotation Xrotation Yrotation
                    JOINT LeftForeArm
                    {
                        OFFSET 31.688633 0.000000 0.000000
                        CHANNELS 3 Zrotation Xrotation Yrotation
                        JOINT LeftHand
                        {
                            OFFSET 29.704493 0.000000 0.000000
                            CHANNELS 3 Zrotation Xrotation Yrotation
                            End Site
                            {
                                OFFSET 15.255952 0.000000 0.000000
                            }
                        }
                    }
                }
            }
            JOINT RightShoulder
            {
                OFFSET -4.099539 23.158985 -0.185822
                CHANNELS 3 Zrotation Xrotation Yrotation
                JOINT RightArm
                {
                    OFFSET -11.674057 0.000000 0.000000
                    CHANNELS 3 Zrotation Xrotation Yrotation
                    JOINT RightForeArm
                    {
                        OFFSET -31.688633 0.000000 0.000000
                        CHANNELS 3 Zrotation Xrotation Yrotation
                        JOINT RightHand
                        {
                            OFFSET -29.704493 0.000000 0.000000
                            CHANNELS 3 Zrotation Xrotation Yrotation
                            End Site
                            {
                                OFFSET -15.255952 0.000000 0.000000
                            }
                        }
                    }
                }
            }
        }
    }
    JOINT LeftUpLeg
    {
        OFFSET 10.170634 0.000000 0.000000
        CHANNELS 3 Zrotation Xrotation Yrotation
        JOINT LeftLeg
        {
            OFFSET -0.000000 -41.352962 0.000000
            CHANNELS 3 Zrotation Xrotation Yrotation
            JOINT LeftFoot
            {
                OFFSET -0.000000 -47.535004 0.000000
                CHANNELS 3 Zrotation Xrotation Yrotation
                JOINT LeftToeBase
                {
                    OFFSET -0.000000 -6.610912 15.255952
                    CHANNELS 3 Zrotation Xrotation Yrotation
                    End Site
                    {
                        OFFSET -0.000000 0.000000 4.068254
                    }
                }
            }
        }
    }
    JOINT RightUpLeg
    {
        OFFSET -10.170634 0.000000 0.000000
        CHANNELS 3 Zrotation Xrotation Yrotation
        JOINT RightLeg
        {
            OFFSET -0.000000 -41.352962 0.000000
            CHANNELS 3 Zrotation Xrotation Yrotation
            JOINT RightFoot
            {
                OFFSET -0.000000 -47.535004 0.000000
                CHANNELS 3 Zrotation Xrotation Yrotation
                JOINT RightToeBase
                {
                    OFFSET -0.000000 -6.610912 15.255952
                    CHANNELS 3 Zrotation Xrotation Yrotation
                    End Site
                    {
                        OFFSET -0.000000 0.000000 4.068254
                    }
                }
            }
        }
    }
}
MOTION
Frames:    4
Frame Time:    0.008333
16.384365    94.199982    40.424458    -0.919582    -0.716640    82.584114    1.808146    -6.485202    0.527408    -3.302723    7.565436    0.643587    -7.290924    21.447525    -6.782596    10.629310    -11.443235    -4.875596    3.993213    5.408253    -9.117955    -65.607430    50.182171    -7.387002    4.430957    -15.752946    -14.919714    -17.732681    -15.841791    4.311753    -11.682487    -1.178319    2.642912    65.483604    65.373100    17.519775    -4.340384    -11.739641    21.343195    -2.211884    -10.975666    2.024872    7.300111    -9.738936    -0.565050    -6.314653    20.407539    13.635354    -6.752204    -10.858677    0.598812    0.000000    0.000000    0.000000    4.050082    -0.689341    7.184813    -1.954020    2.315935    -4.178172    -0.368973    -4.949807    -8.838168    0.000000    0.000000    0.000000    
16.237663    94.186867    40.485909    -1.012517    -0.570602    82.618347    1.821372    -6.476975    0.512551    -3.212989    7.653759    0.624620    -7.207580    21.357140    -6.790139    10.640110    -11.644167    -4.852286    4.069234    5.494441    -9.153338    -65.606461    50.072277    -7.603865    4.623932    -16.273939    -15.273103    -17.871611    -16.309820    4.181645    -11.712485    -1.303958    2.737571    65.184349    65.490631    17.703518    -4.202601    -11.828056    21.545036    -2.396998    -11.080456    1.779047    7.581957    -11.331646    -0.380286    -7.123046    23.349737    13.540412    -7.881269    -11.214124    0.634359    0.000000    0.000000    0.000000    3.908679    -0.711176    7.355748    -1.884686    2.006840    -4.160844    -0.474650    -4.874017    -9.018729    0.000000    0.000000    0.000000    
16.112181    94.161552    40.566040    -1.071127    -0.495748    82.660362    1.905118    -6.485376    0.541456    -3.215272    7.821357    0.653548    -6.853567    21.247488    -6.868783    10.517279    -11.825874    -4.923189    4.215070    5.430453    -9.232770    -65.677986    50.048428    -7.730574    4.773676    -16.711464    -15.623199    -17.906214    -16.675100    3.917556    -11.593801    -1.321857    2.675662    64.427917    65.722672    18.228445    -4.185407    -11.752851    21.759138    -2.275770    -11.000623    1.889633    7.873155    -12.911703    0.141916    -7.642387    26.539331    13.372003    -8.883604    -11.755671    -0.127944    0.000000    0.000000    0.000000    3.858996    -0.652577    7.566012    -1.852910    1.644401    -4.418062    -0.543416    -4.766335    -8.979691    0.000000    0.000000    0.000000    
15.977931    94.145912    40.636707    -1.112548    -0.423933    82.766647    1.901787    -6.443496    0.511984    -3.054435    7.944299    0.617074    -6.617658    21.210831    -6.841369    10.438348    -12.104107    -4.875547    4.367835    5.287120    -9.259171    -65.939919    49.956802    -7.783058    4.925570    -17.051733    -15.929423    -18.199974    -16.947313    3.623008    -11.551636    -1.416683    2.673698    63.922325    65.829475    18.518387    -4.180064    -11.647518    21.871252    -2.080269    -10.892196    2.086947    8.214673    -14.592920    0.458054    -8.531395    29.969368    13.222433    -8.470653    -12.731639    -0.354507    0.000000    0.000000    0.000000    3.801323    -0.561624    7.656260    -1.829698    1.269518    -4.385448    -0.604776    -4.655179    -9.171377    0.000000    0.000000    0.000000    
